<?xml version="1.0" encoding="UTF-8"?>
<svg xmlns="http://www.w3.org/2000/svg" width="115" height="26" viewBox="0 0 115 26" fill="none">
  <path d="M15.454 5.7296V20.571H13.5717V18.0202C12.7715 18.9933 11.8737 19.7254 10.8778 20.2165C9.88185 20.7075 8.79301 20.9532 7.61123 20.9532C5.51072 20.9532 3.71708 20.1914 2.2303 18.6682C0.743789 17.145 0 15.2919 0 13.1094C0 10.9724 0.750469 9.1444 2.25087 7.6257C3.751 6.107 5.55612 5.34766 7.66571 5.34766C8.88408 5.34766 9.98654 5.60674 10.9734 6.12517C11.9599 6.64333 12.8263 7.42111 13.5717 8.45771V5.72933H15.454V5.7296ZM7.82221 7.18927C6.75954 7.18927 5.77886 7.45049 4.87937 7.97293C3.97988 8.49537 3.26466 9.22908 2.73346 10.1738C2.20226 11.1185 1.93679 12.1177 1.93679 13.1711C1.93679 14.2157 2.20466 15.2149 2.74067 16.1687C3.27642 17.1225 3.99617 17.8653 4.89993 18.3966C5.80369 18.9281 6.77343 19.1936 7.80885 19.1936C8.85336 19.1936 9.84339 18.9302 10.7789 18.4032C11.7145 17.8763 12.434 17.1634 12.9382 16.2641C13.4424 15.365 13.6945 14.3522 13.6945 13.2256C13.6945 11.5087 13.1292 10.0736 11.9981 8.91978C10.8673 7.7662 9.47537 7.18927 7.82221 7.18927Z" fill="white"></path>
  <path d="M17.8008 5.72933H19.7103V8.4577C20.4643 7.42084 21.3317 6.64333 22.3129 6.12517C23.2941 5.60674 24.3886 5.34766 25.5968 5.34766C27.7043 5.34766 29.5075 6.10701 31.0063 7.62571C32.5051 9.1444 33.2548 10.9724 33.2548 13.1094C33.2548 15.2921 32.5121 17.1449 31.0266 18.6682C29.5414 20.1914 27.7497 20.9532 25.6513 20.9532C24.47 20.9532 23.3849 20.7075 22.3947 20.2165C21.4046 19.7253 20.5094 18.9932 19.7103 18.0202V26.0002H17.8008V5.72933ZM25.439 7.189C23.7877 7.189 22.3976 7.76593 21.2681 8.91951C20.1387 10.0734 19.5739 11.5085 19.5739 13.2253C19.5739 14.3519 19.8254 15.3648 20.3291 16.2638C20.8326 17.1631 21.5536 17.876 22.4929 18.403C23.4319 18.9299 24.423 19.1933 25.4665 19.1933C26.4915 19.1933 27.4551 18.9278 28.3581 18.3963C29.2607 17.865 29.9797 17.1222 30.5149 16.1684C31.0501 15.2149 31.3177 14.2155 31.3177 13.1709C31.3177 12.1174 31.0523 11.118 30.5219 10.1735C29.9912 9.22881 29.2768 8.4951 28.3786 7.97266C27.4805 7.45022 26.5003 7.189 25.439 7.189Z" fill="white"></path>
  <path d="M35.168 5.72933H37.0775V8.4577C37.8315 7.42084 38.6989 6.64333 39.6801 6.12517C40.6613 5.60674 41.7558 5.34766 42.964 5.34766C45.0715 5.34766 46.8747 6.10701 48.3735 7.62571C49.8723 9.1444 50.622 10.9724 50.622 13.1094C50.622 15.2921 49.8792 17.1449 48.3938 18.6682C46.9086 20.1914 45.1169 20.9532 43.0185 20.9532C41.8372 20.9532 40.7521 20.7075 39.7618 20.2165C38.7718 19.7253 37.8766 18.9932 37.0775 18.0202V26.0002H35.168V5.72933ZM42.8064 7.189C41.1551 7.189 39.765 7.76593 38.6356 8.91951C37.5062 10.0734 36.9413 11.5085 36.9413 13.2253C36.9413 14.3519 37.1929 15.3648 37.6966 16.2638C38.2 17.1631 38.9211 17.876 39.8604 18.403C40.7994 18.9299 41.7905 19.1933 42.8339 19.1933C43.859 19.1933 44.8225 18.9278 45.7255 18.3963C46.6282 17.865 47.3471 17.1222 47.8824 16.1684C48.4176 15.2149 48.6852 14.2155 48.6852 13.1709C48.6852 12.1174 48.4197 11.118 47.8893 10.1735C47.3586 9.22881 46.6442 8.4951 45.7461 7.97266C44.8476 7.45022 43.8675 7.189 42.8064 7.189Z" fill="white"></path>
  <path d="M52.5784 0H56.3019V11.848L61.7851 5.72917H66.4615L60.0684 12.8424L67.2258 20.5708H62.6034L56.3016 13.7308V20.5708H52.5781V0H52.5784Z" fill="#FF4D3F"></path>
  <path d="M68.2305 5.7296H71.954V7.2507C72.7984 6.53863 73.5631 6.0437 74.2489 5.76512C74.9342 5.48681 75.6358 5.34766 76.3534 5.34766C77.8244 5.34766 79.073 5.86128 80.0988 6.88905C80.9611 7.76219 81.3927 9.05358 81.3927 10.763V20.5709H77.7101V14.0717C77.7101 12.3006 77.6305 11.1244 77.4719 10.5429C77.313 9.96144 77.036 9.51886 76.6416 9.21437C76.2471 8.90989 75.7594 8.75818 75.1788 8.75818C74.426 8.75818 73.7796 9.01031 73.2399 9.51432C72.7002 10.0186 72.3257 10.716 72.1171 11.6062C72.0082 12.0693 71.954 13.0731 71.954 14.6169V20.5712H68.2305V5.7296Z" fill="#FF4D3F"></path>
  <path d="M108.413 13.587L114.253 20.5712H109.735L106.282 16.5264L102.815 20.5712H98.4911L104.126 13.5373L100.025 8.80947H90.1503L90.1436 8.83751C89.1877 8.93286 88.3812 9.32336 87.7261 10.0127C86.9654 10.8129 86.5854 11.8589 86.5854 13.1503C86.5854 14.4051 86.97 15.435 87.7399 16.2398C88.5094 17.0448 89.4727 17.447 90.6294 17.447C91.8136 17.447 92.786 17.0493 93.5463 16.2534C94.3069 15.4577 94.6872 14.4233 94.6872 13.1503C94.6872 11.9582 94.3435 10.9727 93.6649 10.1869H97.8589C98.2446 11.1289 98.4382 12.1209 98.4382 13.1639C98.4382 14.5552 98.0926 15.8514 97.4015 17.0517C96.7103 18.2521 95.7488 19.2026 94.5166 19.9027C93.2846 20.603 91.9682 20.9532 90.5679 20.9532C88.6312 20.9532 86.9171 20.2801 85.4258 18.9342C83.7254 17.3883 82.875 15.4558 82.875 13.1367C82.875 10.9721 83.6273 9.13318 85.1323 7.61903C86.6372 6.10487 88.4538 5.34766 90.5813 5.34766C90.7538 5.34766 90.924 5.35326 91.0927 5.36315H101.892L106.257 10.5979L110.321 5.72987H114.645L108.413 13.587Z" fill="#FF4D3F"></path>
</svg>
